<svg xmlns="http://www.w3.org/2000/svg" viewBox="0 0 600 800" width="100%" height="100%">
  <defs>
    <linearGradient id="bgGrad" x1="0%" y1="0%" x2="100%" y2="100%">
      <stop offset="0%" stop-color="#F5F2EA"/>
      <stop offset="60%" stop-color="#EDE8DC"/>
      <stop offset="100%" stop-color="#E2DCD0"/>
    </linearGradient>
    <radialGradient id="vignette" cx="50%" cy="45%" r="65%">
      <stop offset="50%" stop-color="#FFFFFF" stop-opacity="0.5"/>
      <stop offset="100%" stop-color="#16181A" stop-opacity="0.15"/>
    </radialGradient>
    <linearGradient id="suitGrad" x1="0%" y1="0%" x2="0%" y2="100%">
      <stop offset="0%" stop-color="#22262B"/>
      <stop offset="50%" stop-color="#16181C"/>
      <stop offset="100%" stop-color="#0E1012"/>
    </linearGradient>
    <linearGradient id="goldAcc" x1="0%" y1="0%" x2="100%" y2="0%">
      <stop offset="0%" stop-color="#A3834C"/>
      <stop offset="50%" stop-color="#C5A869"/>
      <stop offset="100%" stop-color="#A3834C"/>
    </linearGradient>
    <filter id="paperTexture" x="0%" y="0%" width="100%" height="100%">
      <feTurbulence type="fractalNoise" baseFrequency="0.04" numOctaves="4" result="noise"/>
      <feColorMatrix type="matrix" values="1 0 0 0 0  0 1 0 0 0  0 0 1 0 0  0 0 0 0.05 0"/>
      <feComposite in2="SourceGraphic" in="gl" operator="in"/>
    </filter>
  </defs>

  <!-- Background Base -->
  <rect width="600" height="800" fill="url(#bgGrad)" />
  <rect width="600" height="800" fill="url(#vignette)" />

  <!-- Subtle Financial Etching Border Grid -->
  <rect x="24" y="24" width="552" height="752" fill="none" stroke="#D3CCC0" stroke-width="1.5" stroke-dasharray="8 4" opacity="0.6"/>
  <rect x="32" y="32" width="536" height="736" fill="none" stroke="#B39255" stroke-width="0.75" opacity="0.4"/>

  <!-- Seal / Monogram Accent in Top Corner -->
  <g transform="translate(510, 70)" opacity="0.45">
    <circle cx="0" cy="0" r="28" fill="none" stroke="#1C3D2F" stroke-width="1.5"/>
    <circle cx="0" cy="0" r="24" fill="none" stroke="#B39255" stroke-width="0.75"/>
    <text x="0" y="5" font-family="Georgia, serif" font-size="13" font-weight="bold" fill="#1C3D2F" text-anchor="middle" letter-spacing="1">WEB</text>
    <text x="0" y="15" font-family="sans-serif" font-size="6" fill="#52575C" text-anchor="middle" letter-spacing="1.5">1930</text>
  </g>

  <!-- Silhouette & Tailored Suit -->
  <g transform="translate(0, 40)">
    <!-- Shoulders / Torso -->
    <path d="M120,760 C120,620 180,520 230,490 C250,480 350,480 370,490 C420,520 480,620 480,760 Z" fill="url(#suitGrad)"/>
    
    <!-- White Dress Shirt Collar -->
    <polygon points="265,475 300,560 335,475 315,465 300,478 285,465" fill="#FAF9F6"/>
    <polygon points="280,470 300,530 268,485" fill="#EAE6DF"/>
    <polygon points="320,470 300,530 332,485" fill="#DFD9CD"/>

    <!-- Silk Tie with Subtle Pattern -->
    <polygon points="293,525 307,525 314,680 300,710 286,680" fill="#1C3D2F"/>
    <polygon points="296,525 304,525 308,680 300,705 292,680" fill="#244E3C"/>
    <!-- Tie Accent Pin -->
    <circle cx="300" cy="580" r="2.5" fill="#C5A869"/>

    <!-- Suit Lapels -->
    <path d="M230,490 L275,640 L245,660 L180,560 Z" fill="#2A2F36" opacity="0.9"/>
    <path d="M370,490 L325,640 L355,660 L420,560 Z" fill="#22262B" opacity="0.9"/>
    <line x1="275" y1="640" x2="300" y2="760" stroke="#3A3F47" stroke-width="1.5"/>

    <!-- Neck & Jawline -->
    <path d="M265,410 C265,460 275,485 300,485 C325,485 335,460 335,410 Z" fill="#E8DEC8"/>
    <path d="M275,445 C290,465 310,465 325,445 Z" fill="#D8CCA8" opacity="0.6"/>

    <!-- Head & Ears -->
    <!-- Ears -->
    <ellipse cx="230" cy="360" rx="14" ry="24" fill="#E5D9C2"/>
    <ellipse cx="230" cy="360" rx="8" ry="16" fill="#D3C3A5"/>
    <ellipse cx="370" cy="360" rx="14" ry="24" fill="#E5D9C2"/>
    <ellipse cx="370" cy="360" rx="8" ry="16" fill="#D3C3A5"/>

    <!-- Face Oval -->
    <path d="M240,320 C240,230 360,230 360,320 C360,390 345,430 300,430 C255,430 240,390 240,320 Z" fill="#F0E5D1"/>

    <!-- Classic Receding Silver-White Hair -->
    <path d="M235,320 C230,240 250,200 300,195 C350,200 370,240 365,320 C360,280 345,230 300,230 C255,230 240,280 235,320 Z" fill="#E4DFD7"/>
    <path d="M228,335 C225,290 235,230 270,205 C250,225 240,265 242,335 Z" fill="#D5CEC3"/>
    <path d="M372,335 C375,290 365,230 330,205 C350,225 360,265 358,335 Z" fill="#D5CEC3"/>
    <!-- Subtle hair highlights -->
    <path d="M260,210 Q300,195 340,210 Q300,205 260,210 Z" fill="#FFFFFF" opacity="0.7"/>

    <!-- Forehead Character Lines (Wisdom lines) -->
    <path d="M265,255 Q300,250 335,255" stroke="#C8B89E" stroke-width="1.2" fill="none" opacity="0.7"/>
    <path d="M270,268 Q300,263 330,268" stroke="#C8B89E" stroke-width="1.2" fill="none" opacity="0.6"/>

    <!-- Eyebrows (Prominent, White-Gray) -->
    <path d="M255,295 Q275,285 292,293" stroke="#D1C7B8" stroke-width="4.5" stroke-linecap="round" fill="none"/>
    <path d="M345,295 Q325,285 308,293" stroke="#D1C7B8" stroke-width="4.5" stroke-linecap="round" fill="none"/>

    <!-- Iconic Round Tortoiseshell / Wireframe Spectacles -->
    <!-- Left Lens -->
    <circle cx="274" cy="324" r="23" fill="none" stroke="#7A6038" stroke-width="3"/>
    <circle cx="274" cy="324" r="21.5" fill="#FAF5E8" fill-opacity="0.35" stroke="#B39255" stroke-width="1"/>
    <!-- Right Lens -->
    <circle cx="326" cy="324" r="23" fill="none" stroke="#7A6038" stroke-width="3"/>
    <circle cx="326" cy="324" r="21.5" fill="#FAF5E8" fill-opacity="0.35" stroke="#B39255" stroke-width="1"/>
    <!-- Bridge -->
    <path d="M297,320 Q300,314 303,320" fill="none" stroke="#7A6038" stroke-width="3"/>
    <!-- Frame Temples -->
    <line x1="251" y1="322" x2="232" y2="328" stroke="#7A6038" stroke-width="2.5"/>
    <line x1="349" y1="322" x2="368" y2="328" stroke="#7A6038" stroke-width="2.5"/>

    <!-- Eyes (Warm, smiling crinkles) -->
    <circle cx="274" cy="324" r="4.5" fill="#3D454F"/>
    <circle cx="276" cy="322" r="1.5" fill="#FFFFFF"/>
    <circle cx="326" cy="324" r="4.5" fill="#3D454F"/>
    <circle cx="328" cy="322" r="1.5" fill="#FFFFFF"/>
    <!-- Eye crinkles / laugh lines -->
    <path d="M246,318 Q252,324 248,332" stroke="#BCA98E" stroke-width="1.2" fill="none"/>
    <path d="M354,318 Q348,324 352,332" stroke="#BCA98E" stroke-width="1.2" fill="none"/>

    <!-- Nose (Broad, dignified) -->
    <path d="M298,300 L297,348 Q290,358 285,356 Q280,358 285,363 Q300,367 315,363 Q320,358 315,356 Q310,358 303,348 Z" fill="#E4D5BE" stroke="#CBB99E" stroke-width="1"/>

    <!-- Kind, Subtle Smile -->
    <path d="M272,386 Q300,402 328,386" fill="none" stroke="#A88B70" stroke-width="2.2" stroke-linecap="round"/>
    <path d="M268,382 Q272,387 274,390" fill="none" stroke="#BCA98E" stroke-width="1.5"/>
    <path d="M332,382 Q328,387 326,390" fill="none" stroke="#BCA98E" stroke-width="1.5"/>
    <!-- Lower Lip Shadow -->
    <path d="M285,398 Q300,405 315,398" stroke="#D1BEA4" stroke-width="1.5" fill="none"/>
    <!-- Chin Dimple -->
    <ellipse cx="300" cy="414" rx="7" ry="3" fill="#DBC8AD" opacity="0.6"/>
  </g>

  <!-- Bottom Editorial Typography Plaque -->
  <g transform="translate(0, 680)">
    <rect x="70" y="20" width="460" height="74" rx="2" fill="#FAF9F5" stroke="#D7D2C7" stroke-width="1" filter="drop-shadow(0 4px 12px rgba(0,0,0,0.06))"/>
    <rect x="74" y="24" width="452" height="66" fill="none" stroke="#B39255" stroke-width="0.75" opacity="0.5"/>
    <text x="300" y="50" font-family="Georgia, serif" font-size="17" font-weight="bold" fill="#16181A" text-anchor="middle" letter-spacing="2">WARREN EDWARD BUFFETT</text>
    <text x="300" y="70" font-family="'Plus Jakarta Sans', sans-serif" font-size="9.5" font-weight="600" fill="#1C3D2F" text-anchor="middle" letter-spacing="2.5">ORACLE OF OMAHA · CHAIRMAN &amp; CEO</text>
  </g>
</svg>
